<svg width="271" height="396" viewBox="0 0 271 396" fill="none" xmlns="http://www.w3.org/2000/svg">
<rect width="271" height="396" fill="none"/>
<g clip-path="url(#clip0_0_1)">
<rect width="1440" height="4811" transform="translate(-925 -136)" fill="none"/>
<rect width="1440" height="164" transform="translate(-925 -136)" fill="none"/>
<g filter="url(#filter0_d_0_1)">
<mask id="path-1-outside-1_0_1" maskUnits="userSpaceOnUse" x="10" y="6" width="251" height="280" fill="black">
<rect fill="white" x="10" y="6" width="251" height="280"/>
<path d="M132.883 18.0014C148.32 17.9294 161.71 20.7173 176.203 26.0541C177.379 26.4738 178.556 26.8936 179.768 27.326C206.404 37.5085 228.022 62.6748 240.231 88.3938C244.999 100.51 248.544 113.862 248.819 126.944C248.862 127.952 248.905 128.96 248.95 129.998C249.533 154.141 245.102 176.56 232.061 196.879C231.596 197.659 231.131 198.44 230.652 199.244C229.478 201.178 229.478 201.178 227.593 203.758C226.855 203.758 226.118 203.758 225.358 203.758C225.08 204.587 224.802 205.416 224.516 206.27C222.993 209.793 221.15 212.218 218.725 215.151C215.385 219.194 213.034 223.038 210.835 227.834C210.269 228.956 209.703 230.077 209.12 231.233C205.599 238.266 202.587 244.722 201.474 252.622C200.382 260.065 199.009 264.59 194.078 270.254C190.972 272.203 188.658 272.835 185.038 272.845C184.137 272.854 183.237 272.862 182.309 272.87C180.842 272.866 180.842 272.866 179.345 272.861C177.789 272.87 177.789 272.87 176.201 272.879C172.77 272.895 169.339 272.894 165.908 272.891C163.524 272.896 161.139 272.901 158.754 272.906C153.755 272.915 148.756 272.915 143.757 272.909C137.351 272.902 130.945 272.921 124.538 272.948C119.613 272.965 114.688 272.966 109.763 272.962C107.401 272.963 105.039 272.969 102.677 272.98C99.3738 272.994 96.0717 272.987 92.7689 272.973C91.7932 272.982 90.8174 272.991 89.8121 273C84.5383 272.953 81.0525 272.622 76.7748 269.107C72.7784 264.102 71.6882 260.126 70.9097 253.773C68.6061 238.314 60.5101 224.498 50.7308 212.715C46.5139 207.485 42.8496 202.129 39.4064 196.337C38.3821 194.624 37.3215 192.932 36.1858 191.295C28.6795 180.314 24.6218 165.353 23.1507 152.167C23.0023 151.029 22.854 149.891 22.7012 148.718C20.7406 129.592 22.7974 108.766 30.0632 90.9734C30.4067 90.1287 30.7503 89.284 31.1042 88.4137C35.9218 76.9029 42.6802 66.1443 51.0799 57.009C51.8172 57.009 52.5546 57.009 53.3142 57.009C53.6138 56.276 53.9133 55.5429 54.2219 54.7877C55.5486 52.4231 55.5486 52.4231 58.9001 51.2766C59.1852 50.6204 59.4704 49.9643 59.7642 49.2882C66.5015 36.5169 88.1788 27.2469 101.143 23.1118C111.722 19.9811 121.864 18.123 132.883 18.0014ZM84.595 58.1555C83.5682 58.7437 82.5414 59.3319 81.4835 59.9379C80.667 60.4847 79.8504 61.0315 79.0091 61.5949C79.0091 62.3516 79.0091 63.1083 79.0091 63.8879C78.2718 63.8879 77.5345 63.8879 76.7748 63.8879C76.7748 64.6445 76.7748 65.4012 76.7748 66.1808C75.3001 66.5591 73.8255 66.9375 72.3061 67.3273C72.3061 68.4623 72.3061 69.5973 72.3061 70.7667C71.6365 71.0608 70.9668 71.3549 70.2769 71.6579C63.191 75.7296 59.1538 85.3772 55.5486 92.5498C55.195 93.2137 54.8415 93.8776 54.4772 94.5617C43.7401 115.358 43.8594 142.488 50.2709 164.655C52.4467 171.153 55.5808 177.17 58.9001 183.121C59.6374 183.121 60.3748 183.121 61.1344 183.121C61.2036 183.921 61.2727 184.72 61.3439 185.544C62.5338 189.883 64.9793 192.652 67.8374 195.948C73.3322 202.425 73.3322 202.425 74.5405 204.904C75.2778 204.904 76.0151 204.904 76.7748 204.904C77.0801 205.734 77.3854 206.563 77.7 207.417C78.9709 210.543 80.4412 213.361 82.0814 216.298C87.7925 226.942 92.4742 237.643 94.6495 249.617C95.8846 251.143 95.8846 251.143 98.9971 250.901C100.443 250.899 101.89 250.896 103.38 250.894C104.175 250.894 104.971 250.894 105.791 250.894C108.432 250.893 111.074 250.884 113.716 250.876C115.542 250.873 117.369 250.872 119.196 250.871C124.014 250.866 128.831 250.855 133.648 250.842C138.561 250.831 143.473 250.825 148.385 250.82C158.03 250.807 167.675 250.788 177.32 250.764C177.544 249.825 177.769 248.885 178 247.918C178.297 246.683 178.595 245.448 178.901 244.176C179.194 242.953 179.488 241.73 179.79 240.471C184.419 222.274 194.166 207.806 205.873 193.623C215.941 180.827 221.11 165.794 224.241 149.874C224.456 148.94 224.67 148.006 224.891 147.043C228.071 127.285 223.64 107.977 215.304 90.2568C214.566 90.2568 213.829 90.2568 213.069 90.2568C212.862 89.3346 212.655 88.4124 212.441 87.4623C209.368 79.647 203.556 72.8962 197.429 67.3273C196.692 67.3273 195.954 67.3273 195.195 67.3273C195.195 66.5706 195.195 65.8139 195.195 65.0343C194.457 65.0343 193.72 65.0343 192.96 65.0343C192.592 63.8993 192.223 62.7643 191.843 61.5949C189.705 59.7492 189.705 59.7492 187.095 58.0838C186.237 57.503 185.379 56.9222 184.494 56.3238C181.802 54.6284 181.802 54.6284 178.734 53.5024C176.203 52.4231 176.203 52.4231 175.086 50.1301C172.184 48.9035 172.184 48.9035 168.732 47.8372C167.575 47.4588 166.419 47.0805 165.228 46.6907C164.057 46.3124 162.886 45.934 161.68 45.5442C160.59 45.1422 159.499 44.7403 158.376 44.3261C133.179 36.3594 106.068 44.1777 84.595 58.1555Z"/>
</mask>
<path d="M132.883 18.0014C148.32 17.9294 161.71 20.7173 176.203 26.0541C177.379 26.4738 178.556 26.8936 179.768 27.326C206.404 37.5085 228.022 62.6748 240.231 88.3938C244.999 100.51 248.544 113.862 248.819 126.944C248.862 127.952 248.905 128.96 248.95 129.998C249.533 154.141 245.102 176.56 232.061 196.879C231.596 197.659 231.131 198.44 230.652 199.244C229.478 201.178 229.478 201.178 227.593 203.758C226.855 203.758 226.118 203.758 225.358 203.758C225.08 204.587 224.802 205.416 224.516 206.27C222.993 209.793 221.15 212.218 218.725 215.151C215.385 219.194 213.034 223.038 210.835 227.834C210.269 228.956 209.703 230.077 209.12 231.233C205.599 238.266 202.587 244.722 201.474 252.622C200.382 260.065 199.009 264.59 194.078 270.254C190.972 272.203 188.658 272.835 185.038 272.845C184.137 272.854 183.237 272.862 182.309 272.87C180.842 272.866 180.842 272.866 179.345 272.861C177.789 272.87 177.789 272.87 176.201 272.879C172.77 272.895 169.339 272.894 165.908 272.891C163.524 272.896 161.139 272.901 158.754 272.906C153.755 272.915 148.756 272.915 143.757 272.909C137.351 272.902 130.945 272.921 124.538 272.948C119.613 272.965 114.688 272.966 109.763 272.962C107.401 272.963 105.039 272.969 102.677 272.98C99.3738 272.994 96.0717 272.987 92.7689 272.973C91.7932 272.982 90.8174 272.991 89.8121 273C84.5383 272.953 81.0525 272.622 76.7748 269.107C72.7784 264.102 71.6882 260.126 70.9097 253.773C68.6061 238.314 60.5101 224.498 50.7308 212.715C46.5139 207.485 42.8496 202.129 39.4064 196.337C38.3821 194.624 37.3215 192.932 36.1858 191.295C28.6795 180.314 24.6218 165.353 23.1507 152.167C23.0023 151.029 22.854 149.891 22.7012 148.718C20.7406 129.592 22.7974 108.766 30.0632 90.9734C30.4067 90.1287 30.7503 89.284 31.1042 88.4137C35.9218 76.9029 42.6802 66.1443 51.0799 57.009C51.8172 57.009 52.5546 57.009 53.3142 57.009C53.6138 56.276 53.9133 55.5429 54.2219 54.7877C55.5486 52.4231 55.5486 52.4231 58.9001 51.2766C59.1852 50.6204 59.4704 49.9643 59.7642 49.2882C66.5015 36.5169 88.1788 27.2469 101.143 23.1118C111.722 19.9811 121.864 18.123 132.883 18.0014ZM84.595 58.1555C83.5682 58.7437 82.5414 59.3319 81.4835 59.9379C80.667 60.4847 79.8504 61.0315 79.0091 61.5949C79.0091 62.3516 79.0091 63.1083 79.0091 63.8879C78.2718 63.8879 77.5345 63.8879 76.7748 63.8879C76.7748 64.6445 76.7748 65.4012 76.7748 66.1808C75.3001 66.5591 73.8255 66.9375 72.3061 67.3273C72.3061 68.4623 72.3061 69.5973 72.3061 70.7667C71.6365 71.0608 70.9668 71.3549 70.2769 71.6579C63.191 75.7296 59.1538 85.3772 55.5486 92.5498C55.195 93.2137 54.8415 93.8776 54.4772 94.5617C43.7401 115.358 43.8594 142.488 50.2709 164.655C52.4467 171.153 55.5808 177.17 58.9001 183.121C59.6374 183.121 60.3748 183.121 61.1344 183.121C61.2036 183.921 61.2727 184.72 61.3439 185.544C62.5338 189.883 64.9793 192.652 67.8374 195.948C73.3322 202.425 73.3322 202.425 74.5405 204.904C75.2778 204.904 76.0151 204.904 76.7748 204.904C77.0801 205.734 77.3854 206.563 77.7 207.417C78.9709 210.543 80.4412 213.361 82.0814 216.298C87.7925 226.942 92.4742 237.643 94.6495 249.617C95.8846 251.143 95.8846 251.143 98.9971 250.901C100.443 250.899 101.89 250.896 103.38 250.894C104.175 250.894 104.971 250.894 105.791 250.894C108.432 250.893 111.074 250.884 113.716 250.876C115.542 250.873 117.369 250.872 119.196 250.871C124.014 250.866 128.831 250.855 133.648 250.842C138.561 250.831 143.473 250.825 148.385 250.82C158.03 250.807 167.675 250.788 177.32 250.764C177.544 249.825 177.769 248.885 178 247.918C178.297 246.683 178.595 245.448 178.901 244.176C179.194 242.953 179.488 241.73 179.79 240.471C184.419 222.274 194.166 207.806 205.873 193.623C215.941 180.827 221.11 165.794 224.241 149.874C224.456 148.94 224.67 148.006 224.891 147.043C228.071 127.285 223.64 107.977 215.304 90.2568C214.566 90.2568 213.829 90.2568 213.069 90.2568C212.862 89.3346 212.655 88.4124 212.441 87.4623C209.368 79.647 203.556 72.8962 197.429 67.3273C196.692 67.3273 195.954 67.3273 195.195 67.3273C195.195 66.5706 195.195 65.8139 195.195 65.0343C194.457 65.0343 193.72 65.0343 192.96 65.0343C192.592 63.8993 192.223 62.7643 191.843 61.5949C189.705 59.7492 189.705 59.7492 187.095 58.0838C186.237 57.503 185.379 56.9222 184.494 56.3238C181.802 54.6284 181.802 54.6284 178.734 53.5024C176.203 52.4231 176.203 52.4231 175.086 50.1301C172.184 48.9035 172.184 48.9035 168.732 47.8372C167.575 47.4588 166.419 47.0805 165.228 46.6907C164.057 46.3124 162.886 45.934 161.68 45.5442C160.59 45.1422 159.499 44.7403 158.376 44.3261C133.179 36.3594 106.068 44.1777 84.595 58.1555Z" fill="#E9EAED"/>
<path d="M132.883 18.0014C148.32 17.9294 161.71 20.7173 176.203 26.0541C177.379 26.4738 178.556 26.8936 179.768 27.326C206.404 37.5085 228.022 62.6748 240.231 88.3938C244.999 100.51 248.544 113.862 248.819 126.944C248.862 127.952 248.905 128.96 248.95 129.998C249.533 154.141 245.102 176.56 232.061 196.879C231.596 197.659 231.131 198.44 230.652 199.244C229.478 201.178 229.478 201.178 227.593 203.758C226.855 203.758 226.118 203.758 225.358 203.758C225.08 204.587 224.802 205.416 224.516 206.27C222.993 209.793 221.15 212.218 218.725 215.151C215.385 219.194 213.034 223.038 210.835 227.834C210.269 228.956 209.703 230.077 209.12 231.233C205.599 238.266 202.587 244.722 201.474 252.622C200.382 260.065 199.009 264.59 194.078 270.254C190.972 272.203 188.658 272.835 185.038 272.845C184.137 272.854 183.237 272.862 182.309 272.87C180.842 272.866 180.842 272.866 179.345 272.861C177.789 272.87 177.789 272.87 176.201 272.879C172.77 272.895 169.339 272.894 165.908 272.891C163.524 272.896 161.139 272.901 158.754 272.906C153.755 272.915 148.756 272.915 143.757 272.909C137.351 272.902 130.945 272.921 124.538 272.948C119.613 272.965 114.688 272.966 109.763 272.962C107.401 272.963 105.039 272.969 102.677 272.98C99.3738 272.994 96.0717 272.987 92.7689 272.973C91.7932 272.982 90.8174 272.991 89.8121 273C84.5383 272.953 81.0525 272.622 76.7748 269.107C72.7784 264.102 71.6882 260.126 70.9097 253.773C68.6061 238.314 60.5101 224.498 50.7308 212.715C46.5139 207.485 42.8496 202.129 39.4064 196.337C38.3821 194.624 37.3215 192.932 36.1858 191.295C28.6795 180.314 24.6218 165.353 23.1507 152.167C23.0023 151.029 22.854 149.891 22.7012 148.718C20.7406 129.592 22.7974 108.766 30.0632 90.9734C30.4067 90.1287 30.7503 89.284 31.1042 88.4137C35.9218 76.9029 42.6802 66.1443 51.0799 57.009C51.8172 57.009 52.5546 57.009 53.3142 57.009C53.6138 56.276 53.9133 55.5429 54.2219 54.7877C55.5486 52.4231 55.5486 52.4231 58.9001 51.2766C59.1852 50.6204 59.4704 49.9643 59.7642 49.2882C66.5015 36.5169 88.1788 27.2469 101.143 23.1118C111.722 19.9811 121.864 18.123 132.883 18.0014ZM84.595 58.1555C83.5682 58.7437 82.5414 59.3319 81.4835 59.9379C80.667 60.4847 79.8504 61.0315 79.0091 61.5949C79.0091 62.3516 79.0091 63.1083 79.0091 63.8879C78.2718 63.8879 77.5345 63.8879 76.7748 63.8879C76.7748 64.6445 76.7748 65.4012 76.7748 66.1808C75.3001 66.5591 73.8255 66.9375 72.3061 67.3273C72.3061 68.4623 72.3061 69.5973 72.3061 70.7667C71.6365 71.0608 70.9668 71.3549 70.2769 71.6579C63.191 75.7296 59.1538 85.3772 55.5486 92.5498C55.195 93.2137 54.8415 93.8776 54.4772 94.5617C43.7401 115.358 43.8594 142.488 50.2709 164.655C52.4467 171.153 55.5808 177.17 58.9001 183.121C59.6374 183.121 60.3748 183.121 61.1344 183.121C61.2036 183.921 61.2727 184.72 61.3439 185.544C62.5338 189.883 64.9793 192.652 67.8374 195.948C73.3322 202.425 73.3322 202.425 74.5405 204.904C75.2778 204.904 76.0151 204.904 76.7748 204.904C77.0801 205.734 77.3854 206.563 77.7 207.417C78.9709 210.543 80.4412 213.361 82.0814 216.298C87.7925 226.942 92.4742 237.643 94.6495 249.617C95.8846 251.143 95.8846 251.143 98.9971 250.901C100.443 250.899 101.89 250.896 103.38 250.894C104.175 250.894 104.971 250.894 105.791 250.894C108.432 250.893 111.074 250.884 113.716 250.876C115.542 250.873 117.369 250.872 119.196 250.871C124.014 250.866 128.831 250.855 133.648 250.842C138.561 250.831 143.473 250.825 148.385 250.82C158.03 250.807 167.675 250.788 177.32 250.764C177.544 249.825 177.769 248.885 178 247.918C178.297 246.683 178.595 245.448 178.901 244.176C179.194 242.953 179.488 241.73 179.79 240.471C184.419 222.274 194.166 207.806 205.873 193.623C215.941 180.827 221.11 165.794 224.241 149.874C224.456 148.94 224.67 148.006 224.891 147.043C228.071 127.285 223.64 107.977 215.304 90.2568C214.566 90.2568 213.829 90.2568 213.069 90.2568C212.862 89.3346 212.655 88.4124 212.441 87.4623C209.368 79.647 203.556 72.8962 197.429 67.3273C196.692 67.3273 195.954 67.3273 195.195 67.3273C195.195 66.5706 195.195 65.8139 195.195 65.0343C194.457 65.0343 193.72 65.0343 192.96 65.0343C192.592 63.8993 192.223 62.7643 191.843 61.5949C189.705 59.7492 189.705 59.7492 187.095 58.0838C186.237 57.503 185.379 56.9222 184.494 56.3238C181.802 54.6284 181.802 54.6284 178.734 53.5024C176.203 52.4231 176.203 52.4231 175.086 50.1301C172.184 48.9035 172.184 48.9035 168.732 47.8372C167.575 47.4588 166.419 47.0805 165.228 46.6907C164.057 46.3124 162.886 45.934 161.68 45.5442C160.59 45.1422 159.499 44.7403 158.376 44.3261C133.179 36.3594 106.068 44.1777 84.595 58.1555Z" stroke="black" stroke-width="24" mask="url(#path-1-outside-1_0_1)"/>
</g>
<g filter="url(#filter1_d_0_1)">
<mask id="path-2-outside-2_0_1" maskUnits="userSpaceOnUse" x="83" y="65" width="104" height="163" fill="black">
<rect fill="white" x="83" y="65" width="104" height="163"/>
<path d="M143.119 77.8315C144.655 80.9033 144.237 83.7546 144.206 87.1652C144.197 88.4758 144.188 89.7865 144.178 91.1368C144.166 92.1469 144.155 93.1569 144.142 94.1975C145.26 94.2186 146.379 94.2397 147.531 94.2614C154.667 95.1867 160.983 99.3658 165.623 104.758C170.103 111.274 170.993 116.057 170.737 123.861C169.714 124.884 169.714 124.884 166.034 124.984C164.512 124.977 162.99 124.965 161.467 124.948C160.303 124.941 160.303 124.941 159.116 124.934C157.193 124.922 155.271 124.903 153.348 124.884C153.086 124.193 152.823 123.502 152.553 122.79C150.46 117.914 148.836 114.348 143.887 112.034C139.25 110.374 134.721 109.852 129.822 109.541C129.822 110.216 129.822 110.891 129.822 111.586C128.683 111.818 127.544 112.05 126.37 112.29C122.588 113.233 122.588 113.233 121.192 115.934C120.538 119.128 120.202 121.636 120.616 124.884C122.577 127.186 122.577 127.186 124.708 128.975C124.708 129.65 124.708 130.325 124.708 131.021C125.301 131.219 125.894 131.417 126.506 131.62C127.305 131.887 128.104 132.153 128.927 132.427C129.778 132.71 130.628 132.992 131.504 133.283C133.272 133.875 135.034 134.488 136.79 135.113C139.935 136.152 139.935 136.152 142.76 136.727C154.245 139.266 163.971 143.522 170.737 153.524C174.675 160.249 174.696 166.359 173.806 173.982C171.481 181.412 167.185 187.625 160.44 191.59C155.031 194.234 150.126 195.082 144.142 195.462C144.154 196.779 144.166 198.097 144.178 199.454C144.188 201.171 144.197 202.887 144.206 204.604C144.215 205.474 144.223 206.343 144.232 207.239C144.236 208.067 144.239 208.894 144.242 209.746C144.248 210.512 144.253 211.278 144.258 212.068C144.142 213.874 144.142 213.874 143.119 214.897C140.381 214.999 137.675 215.039 134.936 215.025C134.169 215.029 133.402 215.033 132.611 215.037C126.883 215.026 126.883 215.026 125.731 213.874C125.642 212.501 125.621 211.123 125.631 209.746C125.634 208.919 125.637 208.092 125.641 207.239C125.649 206.37 125.658 205.5 125.667 204.604C125.671 203.731 125.676 202.857 125.681 201.957C125.693 199.792 125.711 197.627 125.731 195.462C125.076 195.405 124.422 195.347 123.747 195.288C119.299 194.883 115.484 194.365 111.41 192.394C111.41 191.718 111.41 191.043 111.41 190.348C110.556 190.253 110.556 190.253 109.684 190.156C103.788 188.084 101.005 182.509 98.1289 177.338C95.9954 172.546 95.8672 167.93 96.0672 162.73C98.1485 160.649 102.294 161.518 105.145 161.515C105.895 161.503 106.646 161.49 107.419 161.478C111.344 161.467 113.183 161.526 116.525 163.753C117.431 166.345 118.012 168.943 118.63 171.616C119.377 174.085 119.377 174.085 121.419 175.196C122.541 175.608 122.541 175.608 123.685 176.028C124.443 176.403 125.201 176.779 125.982 177.166C129.685 178.359 133.202 178.332 137.046 178.265C137.769 178.264 138.493 178.264 139.238 178.263C144.38 178.353 144.38 178.353 149.257 177.05C151.653 173.54 151.848 170.144 151.766 165.995C151.219 163.351 150.511 162.436 148.49 160.684C144.977 158.511 144.977 158.511 141.074 157.616C141.074 156.941 141.074 156.266 141.074 155.57C140.416 155.47 139.758 155.37 139.08 155.266C129.67 153.709 120.113 151.379 111.41 147.387C111.073 146.712 110.735 146.037 110.387 145.341C109.522 144.835 108.658 144.329 107.766 143.807C106.944 143.301 106.121 142.794 105.273 142.273C105.273 141.598 105.273 140.922 105.273 140.227C104.598 140.227 103.923 140.227 103.227 140.227C99.1798 131.428 97.497 122.456 100.35 112.993C103.737 104.06 108.824 99.23 117.548 95.2204C120.045 94.5473 122.109 94.3105 124.708 94.1975C124.801 92.6825 124.801 92.6825 124.896 91.1368C124.981 89.8262 125.067 88.5156 125.155 87.1652C125.238 85.8598 125.321 84.5545 125.407 83.2096C125.731 79.8772 125.731 79.8772 126.753 77.8315C132.498 76.7228 137.375 76.7228 143.119 77.8315Z"/>
</mask>
<path d="M143.119 77.8315C144.655 80.9033 144.237 83.7546 144.206 87.1652C144.197 88.4758 144.188 89.7865 144.178 91.1368C144.166 92.1469 144.155 93.1569 144.142 94.1975C145.26 94.2186 146.379 94.2397 147.531 94.2614C154.667 95.1867 160.983 99.3658 165.623 104.758C170.103 111.274 170.993 116.057 170.737 123.861C169.714 124.884 169.714 124.884 166.034 124.984C164.512 124.977 162.99 124.965 161.467 124.948C160.303 124.941 160.303 124.941 159.116 124.934C157.193 124.922 155.271 124.903 153.348 124.884C153.086 124.193 152.823 123.502 152.553 122.79C150.46 117.914 148.836 114.348 143.887 112.034C139.25 110.374 134.721 109.852 129.822 109.541C129.822 110.216 129.822 110.891 129.822 111.586C128.683 111.818 127.544 112.05 126.37 112.29C122.588 113.233 122.588 113.233 121.192 115.934C120.538 119.128 120.202 121.636 120.616 124.884C122.577 127.186 122.577 127.186 124.708 128.975C124.708 129.65 124.708 130.325 124.708 131.021C125.301 131.219 125.894 131.417 126.506 131.62C127.305 131.887 128.104 132.153 128.927 132.427C129.778 132.71 130.628 132.992 131.504 133.283C133.272 133.875 135.034 134.488 136.79 135.113C139.935 136.152 139.935 136.152 142.76 136.727C154.245 139.266 163.971 143.522 170.737 153.524C174.675 160.249 174.696 166.359 173.806 173.982C171.481 181.412 167.185 187.625 160.44 191.59C155.031 194.234 150.126 195.082 144.142 195.462C144.154 196.779 144.166 198.097 144.178 199.454C144.188 201.171 144.197 202.887 144.206 204.604C144.215 205.474 144.223 206.343 144.232 207.239C144.236 208.067 144.239 208.894 144.242 209.746C144.248 210.512 144.253 211.278 144.258 212.068C144.142 213.874 144.142 213.874 143.119 214.897C140.381 214.999 137.675 215.039 134.936 215.025C134.169 215.029 133.402 215.033 132.611 215.037C126.883 215.026 126.883 215.026 125.731 213.874C125.642 212.501 125.621 211.123 125.631 209.746C125.634 208.919 125.637 208.092 125.641 207.239C125.649 206.37 125.658 205.5 125.667 204.604C125.671 203.731 125.676 202.857 125.681 201.957C125.693 199.792 125.711 197.627 125.731 195.462C125.076 195.405 124.422 195.347 123.747 195.288C119.299 194.883 115.484 194.365 111.41 192.394C111.41 191.718 111.41 191.043 111.41 190.348C110.556 190.253 110.556 190.253 109.684 190.156C103.788 188.084 101.005 182.509 98.1289 177.338C95.9954 172.546 95.8672 167.93 96.0672 162.73C98.1485 160.649 102.294 161.518 105.145 161.515C105.895 161.503 106.646 161.49 107.419 161.478C111.344 161.467 113.183 161.526 116.525 163.753C117.431 166.345 118.012 168.943 118.63 171.616C119.377 174.085 119.377 174.085 121.419 175.196C122.541 175.608 122.541 175.608 123.685 176.028C124.443 176.403 125.201 176.779 125.982 177.166C129.685 178.359 133.202 178.332 137.046 178.265C137.769 178.264 138.493 178.264 139.238 178.263C144.38 178.353 144.38 178.353 149.257 177.05C151.653 173.54 151.848 170.144 151.766 165.995C151.219 163.351 150.511 162.436 148.49 160.684C144.977 158.511 144.977 158.511 141.074 157.616C141.074 156.941 141.074 156.266 141.074 155.57C140.416 155.47 139.758 155.37 139.08 155.266C129.67 153.709 120.113 151.379 111.41 147.387C111.073 146.712 110.735 146.037 110.387 145.341C109.522 144.835 108.658 144.329 107.766 143.807C106.944 143.301 106.121 142.794 105.273 142.273C105.273 141.598 105.273 140.922 105.273 140.227C104.598 140.227 103.923 140.227 103.227 140.227C99.1798 131.428 97.497 122.456 100.35 112.993C103.737 104.06 108.824 99.23 117.548 95.2204C120.045 94.5473 122.109 94.3105 124.708 94.1975C124.801 92.6825 124.801 92.6825 124.896 91.1368C124.981 89.8262 125.067 88.5156 125.155 87.1652C125.238 85.8598 125.321 84.5545 125.407 83.2096C125.731 79.8772 125.731 79.8772 126.753 77.8315C132.498 76.7228 137.375 76.7228 143.119 77.8315Z" fill="#E2E3E7"/>
<path d="M143.119 77.8315C144.655 80.9033 144.237 83.7546 144.206 87.1652C144.197 88.4758 144.188 89.7865 144.178 91.1368C144.166 92.1469 144.155 93.1569 144.142 94.1975C145.26 94.2186 146.379 94.2397 147.531 94.2614C154.667 95.1867 160.983 99.3658 165.623 104.758C170.103 111.274 170.993 116.057 170.737 123.861C169.714 124.884 169.714 124.884 166.034 124.984C164.512 124.977 162.99 124.965 161.467 124.948C160.303 124.941 160.303 124.941 159.116 124.934C157.193 124.922 155.271 124.903 153.348 124.884C153.086 124.193 152.823 123.502 152.553 122.79C150.46 117.914 148.836 114.348 143.887 112.034C139.25 110.374 134.721 109.852 129.822 109.541C129.822 110.216 129.822 110.891 129.822 111.586C128.683 111.818 127.544 112.05 126.37 112.29C122.588 113.233 122.588 113.233 121.192 115.934C120.538 119.128 120.202 121.636 120.616 124.884C122.577 127.186 122.577 127.186 124.708 128.975C124.708 129.65 124.708 130.325 124.708 131.021C125.301 131.219 125.894 131.417 126.506 131.62C127.305 131.887 128.104 132.153 128.927 132.427C129.778 132.71 130.628 132.992 131.504 133.283C133.272 133.875 135.034 134.488 136.79 135.113C139.935 136.152 139.935 136.152 142.76 136.727C154.245 139.266 163.971 143.522 170.737 153.524C174.675 160.249 174.696 166.359 173.806 173.982C171.481 181.412 167.185 187.625 160.44 191.59C155.031 194.234 150.126 195.082 144.142 195.462C144.154 196.779 144.166 198.097 144.178 199.454C144.188 201.171 144.197 202.887 144.206 204.604C144.215 205.474 144.223 206.343 144.232 207.239C144.236 208.067 144.239 208.894 144.242 209.746C144.248 210.512 144.253 211.278 144.258 212.068C144.142 213.874 144.142 213.874 143.119 214.897C140.381 214.999 137.675 215.039 134.936 215.025C134.169 215.029 133.402 215.033 132.611 215.037C126.883 215.026 126.883 215.026 125.731 213.874C125.642 212.501 125.621 211.123 125.631 209.746C125.634 208.919 125.637 208.092 125.641 207.239C125.649 206.37 125.658 205.5 125.667 204.604C125.671 203.731 125.676 202.857 125.681 201.957C125.693 199.792 125.711 197.627 125.731 195.462C125.076 195.405 124.422 195.347 123.747 195.288C119.299 194.883 115.484 194.365 111.41 192.394C111.41 191.718 111.41 191.043 111.41 190.348C110.556 190.253 110.556 190.253 109.684 190.156C103.788 188.084 101.005 182.509 98.1289 177.338C95.9954 172.546 95.8672 167.93 96.0672 162.73C98.1485 160.649 102.294 161.518 105.145 161.515C105.895 161.503 106.646 161.49 107.419 161.478C111.344 161.467 113.183 161.526 116.525 163.753C117.431 166.345 118.012 168.943 118.63 171.616C119.377 174.085 119.377 174.085 121.419 175.196C122.541 175.608 122.541 175.608 123.685 176.028C124.443 176.403 125.201 176.779 125.982 177.166C129.685 178.359 133.202 178.332 137.046 178.265C137.769 178.264 138.493 178.264 139.238 178.263C144.38 178.353 144.38 178.353 149.257 177.05C151.653 173.54 151.848 170.144 151.766 165.995C151.219 163.351 150.511 162.436 148.49 160.684C144.977 158.511 144.977 158.511 141.074 157.616C141.074 156.941 141.074 156.266 141.074 155.57C140.416 155.47 139.758 155.37 139.08 155.266C129.67 153.709 120.113 151.379 111.41 147.387C111.073 146.712 110.735 146.037 110.387 145.341C109.522 144.835 108.658 144.329 107.766 143.807C106.944 143.301 106.121 142.794 105.273 142.273C105.273 141.598 105.273 140.922 105.273 140.227C104.598 140.227 103.923 140.227 103.227 140.227C99.1798 131.428 97.497 122.456 100.35 112.993C103.737 104.06 108.824 99.23 117.548 95.2204C120.045 94.5473 122.109 94.3105 124.708 94.1975C124.801 92.6825 124.801 92.6825 124.896 91.1368C124.981 89.8262 125.067 88.5156 125.155 87.1652C125.238 85.8598 125.321 84.5545 125.407 83.2096C125.731 79.8772 125.731 79.8772 126.753 77.8315C132.498 76.7228 137.375 76.7228 143.119 77.8315Z" stroke="black" stroke-width="24" mask="url(#path-2-outside-2_0_1)"/>
</g>
<g filter="url(#filter2_d_0_1)">
<mask id="path-3-outside-3_0_1" maskUnits="userSpaceOnUse" x="70" y="285" width="129" height="48" fill="black">
<rect fill="white" x="70" y="285" width="129" height="48"/>
<path d="M98.5066 298.45C99.8117 298.438 99.8117 298.438 101.143 298.425C104.03 298.4 106.916 298.383 109.803 298.368C110.788 298.363 111.773 298.357 112.787 298.352C117.999 298.324 123.212 298.304 128.424 298.29C133.81 298.273 139.196 298.227 144.583 298.175C148.722 298.14 152.861 298.128 157 298.123C158.986 298.116 160.972 298.1 162.957 298.076C165.737 298.043 168.515 298.043 171.295 298.051C172.525 298.026 172.525 298.026 173.78 298C178.017 298.047 179.844 298.43 183.15 301.178C183.833 302.031 184.516 302.884 185.22 303.762C185.726 304.268 185.726 304.268 186.243 304.785C186.95 311.734 186.95 311.734 185.172 314.838C183.348 317.048 181.663 318.838 179.083 320.128C176.301 320.25 173.545 320.311 170.763 320.325C169.903 320.334 169.043 320.342 168.157 320.351C165.303 320.376 162.45 320.393 159.596 320.408C158.136 320.416 158.136 320.416 156.646 320.424C151.494 320.452 146.341 320.471 141.189 320.486C135.864 320.503 130.54 320.549 125.215 320.601C121.124 320.636 117.032 320.647 112.94 320.653C110.977 320.66 109.014 320.676 107.051 320.7C104.304 320.732 101.558 320.733 98.8098 320.725C97.9993 320.742 97.1888 320.758 96.3537 320.776C92.186 320.729 90.3459 320.336 87.0785 317.657C82.8713 312.361 82.8713 312.361 83.0604 307.918C84.0851 304.331 85.5026 302.369 88.0469 299.671C91.3277 298.03 94.9013 298.469 98.5066 298.45Z"/>
</mask>
<path d="M98.5066 298.45C99.8117 298.438 99.8117 298.438 101.143 298.425C104.03 298.4 106.916 298.383 109.803 298.368C110.788 298.363 111.773 298.357 112.787 298.352C117.999 298.324 123.212 298.304 128.424 298.29C133.81 298.273 139.196 298.227 144.583 298.175C148.722 298.14 152.861 298.128 157 298.123C158.986 298.116 160.972 298.1 162.957 298.076C165.737 298.043 168.515 298.043 171.295 298.051C172.525 298.026 172.525 298.026 173.78 298C178.017 298.047 179.844 298.43 183.15 301.178C183.833 302.031 184.516 302.884 185.22 303.762C185.726 304.268 185.726 304.268 186.243 304.785C186.95 311.734 186.95 311.734 185.172 314.838C183.348 317.048 181.663 318.838 179.083 320.128C176.301 320.25 173.545 320.311 170.763 320.325C169.903 320.334 169.043 320.342 168.157 320.351C165.303 320.376 162.45 320.393 159.596 320.408C158.136 320.416 158.136 320.416 156.646 320.424C151.494 320.452 146.341 320.471 141.189 320.486C135.864 320.503 130.54 320.549 125.215 320.601C121.124 320.636 117.032 320.647 112.94 320.653C110.977 320.66 109.014 320.676 107.051 320.7C104.304 320.732 101.558 320.733 98.8098 320.725C97.9993 320.742 97.1888 320.758 96.3537 320.776C92.186 320.729 90.3459 320.336 87.0785 317.657C82.8713 312.361 82.8713 312.361 83.0604 307.918C84.0851 304.331 85.5026 302.369 88.0469 299.671C91.3277 298.03 94.9013 298.469 98.5066 298.45Z" fill="#E6E7EB"/>
<path d="M98.5066 298.45C99.8117 298.438 99.8117 298.438 101.143 298.425C104.03 298.4 106.916 298.383 109.803 298.368C110.788 298.363 111.773 298.357 112.787 298.352C117.999 298.324 123.212 298.304 128.424 298.29C133.81 298.273 139.196 298.227 144.583 298.175C148.722 298.14 152.861 298.128 157 298.123C158.986 298.116 160.972 298.1 162.957 298.076C165.737 298.043 168.515 298.043 171.295 298.051C172.525 298.026 172.525 298.026 173.78 298C178.017 298.047 179.844 298.43 183.15 301.178C183.833 302.031 184.516 302.884 185.22 303.762C185.726 304.268 185.726 304.268 186.243 304.785C186.95 311.734 186.95 311.734 185.172 314.838C183.348 317.048 181.663 318.838 179.083 320.128C176.301 320.25 173.545 320.311 170.763 320.325C169.903 320.334 169.043 320.342 168.157 320.351C165.303 320.376 162.45 320.393 159.596 320.408C158.136 320.416 158.136 320.416 156.646 320.424C151.494 320.452 146.341 320.471 141.189 320.486C135.864 320.503 130.54 320.549 125.215 320.601C121.124 320.636 117.032 320.647 112.94 320.653C110.977 320.66 109.014 320.676 107.051 320.7C104.304 320.732 101.558 320.733 98.8098 320.725C97.9993 320.742 97.1888 320.758 96.3537 320.776C92.186 320.729 90.3459 320.336 87.0785 317.657C82.8713 312.361 82.8713 312.361 83.0604 307.918C84.0851 304.331 85.5026 302.369 88.0469 299.671C91.3277 298.03 94.9013 298.469 98.5066 298.45Z" stroke="black" stroke-width="24" mask="url(#path-3-outside-3_0_1)"/>
</g>
<g filter="url(#filter3_d_0_1)">
<mask id="path-4-outside-4_0_1" maskUnits="userSpaceOnUse" x="86" y="335" width="98" height="47" fill="black">
<rect fill="white" x="86" y="335" width="98" height="47"/>
<path d="M111.387 347.095C112.599 347.089 113.81 347.083 115.059 347.077C116.369 347.077 117.679 347.076 119.028 347.075C120.372 347.072 121.716 347.069 123.101 347.066C125.947 347.06 128.792 347.059 131.637 347.059C135.281 347.059 138.923 347.047 142.567 347.032C146.045 347.02 149.523 347.02 153.002 347.019C154.309 347.013 155.617 347.007 156.965 347C158.787 347.004 158.787 347.004 160.646 347.008C162.249 347.006 162.249 347.006 163.885 347.004C166.741 347.228 168.407 347.581 170.757 348.991C172.017 352.268 172.241 354.383 171.777 357.834C168.546 362.785 163.619 365.761 157.499 367.56C141.426 371.353 120.489 371.122 105.659 364.023C102.183 362.121 100.84 361.135 99.3682 357.834C98.8595 354.666 98.5558 351.8 100.707 349.047C104.235 347.121 107.332 347.107 111.387 347.095Z"/>
</mask>
<path d="M111.387 347.095C112.599 347.089 113.81 347.083 115.059 347.077C116.369 347.077 117.679 347.076 119.028 347.075C120.372 347.072 121.716 347.069 123.101 347.066C125.947 347.06 128.792 347.059 131.637 347.059C135.281 347.059 138.923 347.047 142.567 347.032C146.045 347.02 149.523 347.02 153.002 347.019C154.309 347.013 155.617 347.007 156.965 347C158.787 347.004 158.787 347.004 160.646 347.008C162.249 347.006 162.249 347.006 163.885 347.004C166.741 347.228 168.407 347.581 170.757 348.991C172.017 352.268 172.241 354.383 171.777 357.834C168.546 362.785 163.619 365.761 157.499 367.56C141.426 371.353 120.489 371.122 105.659 364.023C102.183 362.121 100.84 361.135 99.3682 357.834C98.8595 354.666 98.5558 351.8 100.707 349.047C104.235 347.121 107.332 347.107 111.387 347.095Z" fill="#EFF0F2"/>
<path d="M111.387 347.095C112.599 347.089 113.81 347.083 115.059 347.077C116.369 347.077 117.679 347.076 119.028 347.075C120.372 347.072 121.716 347.069 123.101 347.066C125.947 347.06 128.792 347.059 131.637 347.059C135.281 347.059 138.923 347.047 142.567 347.032C146.045 347.02 149.523 347.02 153.002 347.019C154.309 347.013 155.617 347.007 156.965 347C158.787 347.004 158.787 347.004 160.646 347.008C162.249 347.006 162.249 347.006 163.885 347.004C166.741 347.228 168.407 347.581 170.757 348.991C172.017 352.268 172.241 354.383 171.777 357.834C168.546 362.785 163.619 365.761 157.499 367.56C141.426 371.353 120.489 371.122 105.659 364.023C102.183 362.121 100.84 361.135 99.3682 357.834C98.8595 354.666 98.5558 351.8 100.707 349.047C104.235 347.121 107.332 347.107 111.387 347.095Z" stroke="black" stroke-width="24" mask="url(#path-4-outside-4_0_1)"/>
</g>
<mask id="path-5-inside-5_0_1" fill="white">
<path d="M109.792 112.49C110.467 112.827 111.142 113.165 111.838 113.513C109.475 115.875 107.112 118.238 104.678 120.673C104.678 117.604 104.678 117.604 107.235 114.855C108.079 114.075 108.923 113.294 109.792 112.49Z"/>
</mask>
<path d="M109.792 112.49C110.467 112.827 111.142 113.165 111.838 113.513C109.475 115.875 107.112 118.238 104.678 120.673C104.678 117.604 104.678 117.604 107.235 114.855C108.079 114.075 108.923 113.294 109.792 112.49Z" fill="#575E78" stroke="black" stroke-width="8" mask="url(#path-5-inside-5_0_1)"/>
</g>
<defs>
<filter id="filter0_d_0_1" x="0.000488281" y="0" width="271" height="299" filterUnits="userSpaceOnUse" color-interpolation-filters="sRGB">
<feFlood flood-opacity="0" result="BackgroundImageFix"/>
<feColorMatrix in="SourceAlpha" type="matrix" values="0 0 0 0 0 0 0 0 0 0 0 0 0 0 0 0 0 0 127 0" result="hardAlpha"/>
<feOffset dy="4"/>
<feGaussianBlur stdDeviation="5"/>
<feComposite in2="hardAlpha" operator="out"/>
<feColorMatrix type="matrix" values="0 0 0 0 0 0 0 0 0 0 0 0 0 0 0 0 0 0 0.25 0"/>
<feBlend mode="normal" in2="BackgroundImageFix" result="effect1_dropShadow_0_1"/>
<feBlend mode="normal" in="SourceGraphic" in2="effect1_dropShadow_0_1" result="shape"/>
</filter>
<filter id="filter1_d_0_1" x="73.9976" y="59" width="122.285" height="182.037" filterUnits="userSpaceOnUse" color-interpolation-filters="sRGB">
<feFlood flood-opacity="0" result="BackgroundImageFix"/>
<feColorMatrix in="SourceAlpha" type="matrix" values="0 0 0 0 0 0 0 0 0 0 0 0 0 0 0 0 0 0 127 0" result="hardAlpha"/>
<feOffset dy="4"/>
<feGaussianBlur stdDeviation="5"/>
<feComposite in2="hardAlpha" operator="out"/>
<feColorMatrix type="matrix" values="0 0 0 0 0 0 0 0 0 0 0 0 0 0 0 0 0 0 0.25 0"/>
<feBlend mode="normal" in2="BackgroundImageFix" result="effect1_dropShadow_0_1"/>
<feBlend mode="normal" in="SourceGraphic" in2="effect1_dropShadow_0_1" result="shape"/>
</filter>
<filter id="filter2_d_0_1" x="60.989" y="279.999" width="147.688" height="66.7786" filterUnits="userSpaceOnUse" color-interpolation-filters="sRGB">
<feFlood flood-opacity="0" result="BackgroundImageFix"/>
<feColorMatrix in="SourceAlpha" type="matrix" values="0 0 0 0 0 0 0 0 0 0 0 0 0 0 0 0 0 0 127 0" result="hardAlpha"/>
<feOffset dy="4"/>
<feGaussianBlur stdDeviation="5"/>
<feComposite in2="hardAlpha" operator="out"/>
<feColorMatrix type="matrix" values="0 0 0 0 0 0 0 0 0 0 0 0 0 0 0 0 0 0 0.25 0"/>
<feBlend mode="normal" in2="BackgroundImageFix" result="effect1_dropShadow_0_1"/>
<feBlend mode="normal" in="SourceGraphic" in2="effect1_dropShadow_0_1" result="shape"/>
</filter>
<filter id="filter3_d_0_1" x="76.9949" y="329" width="117.005" height="66.9988" filterUnits="userSpaceOnUse" color-interpolation-filters="sRGB">
<feFlood flood-opacity="0" result="BackgroundImageFix"/>
<feColorMatrix in="SourceAlpha" type="matrix" values="0 0 0 0 0 0 0 0 0 0 0 0 0 0 0 0 0 0 127 0" result="hardAlpha"/>
<feOffset dy="4"/>
<feGaussianBlur stdDeviation="5"/>
<feComposite in2="hardAlpha" operator="out"/>
<feColorMatrix type="matrix" values="0 0 0 0 0 0 0 0 0 0 0 0 0 0 0 0 0 0 0.25 0"/>
<feBlend mode="normal" in2="BackgroundImageFix" result="effect1_dropShadow_0_1"/>
<feBlend mode="normal" in="SourceGraphic" in2="effect1_dropShadow_0_1" result="shape"/>
</filter>
<clipPath id="clip0_0_1">
<rect width="1440" height="4811" fill="white" transform="translate(-925 -136)"/>
</clipPath>
</defs>
</svg>
